<?xml version="1.0" encoding="utf-8"?>
<!DOCTYPE svg PUBLIC "-//W3C//DTD SVG 1.1//EN" "http://www.w3.org/Graphics/SVG/1.1/DTD/svg11.dtd">
<svg version="1.1" id="BiB_x2F_i" xmlns="http://www.w3.org/2000/svg" xmlns:xlink="http://www.w3.org/1999/xlink" x="0px" y="0px" width="144px" height="72px" viewBox="0 0 1440 719.619" enable-background="new 0 0 1440 719.619" xml:space="preserve">
	<path id="bibi-type-B" fill="#000000" d="M409.908,488.548c18.805-13.367,32.853-29.512,42.146-48.434 c9.289-18.917,13.936-38.519,13.936-58.801c0-20.277-2.947-37.781-8.837-52.513c-19.034-45.768-61.977-71.377-128.819-76.815 c20.845-7.021,37.951-15.407,51.323-25.152c35.8-26.283,53.703-60.724,53.703-103.327c0-37.388-15.635-66.39-46.905-87.012 c-16.315-10.648-37.107-18.917-62.37-24.812c-25.269-5.89-53.82-8.837-85.653-8.837c-31.838,0-56.65,0.568-74.436,1.699 c-17.791,1.137-31.897,1.699-42.316,1.699H20.733c-3.627,0-7.478-0.563-11.556-1.699C5.55,8.17,3.739,15.197,3.739,25.616 c0,4.758,2.321,9.124,6.968,13.086c4.642,3.967,15.125,7.648,31.44,11.046c25.603,5.215,38.408,18.354,38.408,39.427v346.349 c0,20.17-4.987,34.329-14.955,42.486c-4.307,3.627-9.235,6.007-14.785,7.138c-5.555,1.137-12.634,1.699-21.243,1.699 c-8.614,0-16.771-1.131-24.472-3.399C1.699,487.756,0,495.345,0,506.222c0,5.895,3.962,10.823,11.896,14.785 c7.929,3.967,17.786,5.948,29.571,5.948h85.992l112.844,3.739l0,0C314.399,530.694,370.932,516.647,409.908,488.548L409.908,488.548 z M159.749,104.471c0-12.236,1.073-22.146,3.229-29.74c2.151-7.589,6.909-14.217,14.275-19.884 c7.361-5.661,26.225-8.497,56.592-8.497c44.637,0,76.019,8.954,94.15,26.851c15.407,14.732,23.113,37.845,23.113,69.338 c0,27.648-9.294,50.304-27.871,67.978c-9.066,8.614-20.393,15.465-33.989,20.563c-13.596,5.098-27.478,7.648-41.637,7.648 c-14.164,0-26.342,0-36.538,0l-51.323-0.34V104.471z M383.397,380.462c0,37.388-13.712,64.696-41.127,81.914 c-13.144,8.157-28.779,13.935-46.905,17.334c-18.131,3.399-35.465,5.098-52.003,5.098c-16.543,0-29.459-0.34-38.748-1.02 c-29.91-2.719-44.866-15.518-44.866-38.408V284.273c17.674-0.451,44.977-0.68,81.914-0.68 C336.152,283.594,383.397,315.883,383.397,380.462L383.397,380.462z" />
	<path id="bibi-type-dot-of-i-01" fill-rule="evenodd" clip-rule="evenodd" fill="#000000" d="M564.453,107.406c-7.706,0-14.785-1.19-21.243-3.569 c-6.458-2.379-12.066-5.831-16.825-10.367c-9.974-9.517-14.955-22.316-14.955-38.408c0-15.407,5.89-28.434,17.674-39.087 C540.432,5.327,554.028,0,569.891,0c15.858,0,28.551,4.758,38.068,14.275c9.517,9.517,14.275,22.433,14.275,38.748 c0,15.412-5.667,28.439-16.995,39.087C594.135,102.307,580.539,107.406,564.453,107.406z" />
	<path id="bibi-type-i-and-B" fill-rule="evenodd" clip-rule="evenodd" fill="#000000" d="M1124.049,328.799c5.89,14.732,8.837,32.237,8.837,52.513 c0,20.282-4.647,39.884-13.936,58.801c-9.294,18.922-23.341,35.067-42.146,48.434c-38.976,28.099-95.509,42.146-169.606,42.146 l-112.844-3.739h-85.992c20.028,0-164.643,0.34-164.643,0.34c-34.897,0-52.343-7.929-52.343-23.792 c0-8.157,1.811-14.498,5.438-19.034c5.438,1.816,10.42,2.719,14.955,2.719c21.073,0,31.381-13.367,30.93-40.107V268.774 c0-15.858-2.209-26.904-6.628-33.139c-4.419-6.23-12.294-9.347-23.622-9.347c-8.386,0-15.975,1.02-22.773,3.059 c-4.079,0.457-7.026-2.719-8.837-9.517c-1.588-6.118-0.68-11.498,2.719-16.145c3.399-4.642,8.667-9.517,15.805-14.615 c7.138-5.098,15.008-9.57,23.622-13.426c18.577-8.837,34.101-13.256,46.565-13.256c12.459,0,21.695,1.816,27.701,5.438 c6.001,3.627,10.59,8.497,13.766,14.615c4.982,9.974,7.478,26.06,7.478,48.265v222.153c0.68,17.903,7.138,28.779,19.374,32.63 c-11.703-3.913,18.626,12.184,79.84-0.34c5.55-1.131,10.478-3.51,14.785-7.138c9.968-8.157,14.955-22.316,14.955-42.486V89.176 c0-21.073-12.804-34.212-38.408-39.427c-16.315-3.399-26.798-7.079-31.44-11.046c-4.647-3.962-6.968-8.327-6.968-13.086 c0-10.42,1.811-17.446,5.438-21.073c4.079,1.137,7.929,1.699,11.556,1.699h100.948c10.42,0,24.525-0.563,42.316-1.699 c17.786-1.131,42.598-1.699,74.436-1.699c31.833,0,60.384,2.947,85.653,8.837c25.263,5.895,46.055,14.164,62.37,24.812 c31.27,20.622,46.905,49.624,46.905,87.012c0,42.603-17.903,77.044-53.703,103.327c-13.373,9.745-30.479,18.131-51.323,25.152 C1062.072,257.422,1105.015,283.031,1124.049,328.799z M1018.003,142.539c0-31.493-7.706-54.606-23.113-69.338 c-18.131-17.897-49.513-26.851-94.15-26.851c-30.367,0-49.231,2.836-56.592,8.497c-7.366,5.667-12.125,12.294-14.275,19.884 c-2.156,7.594-3.229,17.504-3.229,29.74v133.917l51.323,0.34c10.197,0,22.374,0,36.538,0c14.159,0,28.041-2.549,41.637-7.648 s24.924-11.949,33.989-20.563C1008.709,192.843,1018.003,170.187,1018.003,142.539z M908.558,283.594 c-36.937,0-64.239,0.228-81.914,0.68v161.108c0,22.89,14.955,35.689,44.866,38.408c9.289,0.68,22.204,1.02,38.748,1.02 c16.538,0,33.872-1.699,52.003-5.098c18.126-3.399,33.761-9.177,46.905-17.334c27.414-17.218,41.127-44.526,41.127-81.914 C1050.293,315.883,1003.048,283.594,908.558,283.594z" />
	<path id="bibi-type-slash-and-i" fill-rule="evenodd" clip-rule="evenodd" fill="#000000" d="M1434.222,496.025 c-2.268-1.583-5.385-3.001-9.347-4.249c-3.967-1.243-8.444-2.321-13.426-3.229c-4.987-0.903-9.177-1.922-12.576-3.059 c-12.236-3.85-18.694-14.727-19.374-32.629V231.591c0-22.204-2.496-38.291-7.478-48.265c-3.176-6.118-7.764-10.988-13.766-14.615 c-6.006-3.622-15.242-5.438-27.701-5.438c-12.464,0-27.988,4.419-46.565,13.256c-8.614,3.856-23.622,13.426-23.622,13.426 s-15.084,10.242-19.564,21.951c-4.48,11.708-185.935,485.907-185.935,485.907c-4.589,11.993,0.071,21.806,10.356,21.806 c10.285,0,22.451-9.814,27.036-21.809L1267.735,238.7c0,0,2.116-4.155,5.076-7.164c2.959-3.009,5.539-4.208,7.728-3.896 c7.594,1.083,13.107,4.043,16.537,8.879c4.419,6.235,6.628,17.281,6.628,33.139v177.422c0.451,26.74-9.857,40.107-30.93,40.107 c-4.535,0-9.517-0.903-14.955-2.719c-3.627,4.535-5.438,10.876-5.438,19.034c0,15.863,17.446,23.792,52.343,23.792h108.425 c9.74,0,16.995,0.563,21.753,1.699c3.399-4.302,5.098-10.537,5.098-18.694C1440,503.731,1438.072,498.973,1434.222,496.025z" />
	<path id="bibi-type-dot-of-i-02" fill-rule="evenodd" clip-rule="evenodd" fill="#000000" d="M1307.508,103.837 c6.458,2.379,13.537,3.569,21.243,3.569c16.086,0,29.682-5.098,40.787-15.295c11.328-10.648,16.995-23.675,16.995-39.087 c0-16.315-4.759-29.231-14.276-38.748C1362.741,4.758,1350.048,0,1334.19,0c-15.863,0-29.459,5.327-40.787,15.975 c-11.785,10.653-17.674,23.681-17.674,39.087c0,16.092,4.982,28.891,14.955,38.408 C1295.442,98.005,1301.05,101.457,1307.508,103.837z" />
</svg>
