<svg xmlns="http://www.w3.org/2000/svg" width="144" height="65.04" viewBox="0 0 144 65.04"><title>Bibi</title><path d="M25.72,64.72l-12.08-.4H4.44a7.13,7.13,0,0,1-3.17-.64C.42,63.25,0,62.73,0,62.1a4,4,0,0,1,.55-2.44A9.25,9.25,0,0,0,3.16,60a11.87,11.87,0,0,0,2.28-.18A3.58,3.58,0,0,0,7,59.08c1.07-.88,1.6-2.39,1.6-4.55V17.46q0-3.37-4.11-4.22a8.48,8.48,0,0,1-3.36-1.18,1.84,1.84,0,0,1-.75-1.4A3.23,3.23,0,0,1,1,8.4a4.74,4.74,0,0,0,1.24.19H13c1.12,0,2.63-.07,4.53-.19s4.56-.18,8-.18a40.57,40.57,0,0,1,9.17.95,20.87,20.87,0,0,1,6.67,2.65,10.54,10.54,0,0,1,5,9.32,13.07,13.07,0,0,1-5.75,11,20.35,20.35,0,0,1-5.49,2.7q10.72.87,13.79,8.22a15.1,15.1,0,0,1,.94,5.62A14,14,0,0,1,48.38,55a13.73,13.73,0,0,1-4.51,5.18Q37.62,64.72,25.72,64.72ZM17.1,33.43l5.49,0H26.5A12.75,12.75,0,0,0,31,32.65a10.72,10.72,0,0,0,3.63-2.2,9.6,9.6,0,0,0,3-7.28q0-5.05-2.48-7.42Q32.19,12.89,25,12.88q-4.87,0-6.06.91a4,4,0,0,0-1.53,2.13,12,12,0,0,0-.34,3.18Zm8.76,4.84q-5.92,0-8.76.07V55.58q0,3.68,4.8,4.12c1,.07,2.38.1,4.15.1a30.47,30.47,0,0,0,5.56-.54,14.44,14.44,0,0,0,5-1.86Q41,54.64,41,48.64,41,38.26,25.86,38.27Z"/><path d="M60.61,64.35q-5.59,0-5.6-2.54a3.22,3.22,0,0,1,.58-2,5.28,5.28,0,0,0,1.6.29q3.39,0,3.31-4.29V31.39a6.46,6.46,0,0,0-.7-3.54,2.9,2.9,0,0,0-2.53-1,8.79,8.79,0,0,0-2.44.32c-.44,0-.75-.29-.95-1a2,2,0,0,1,.29-1.73,7.57,7.57,0,0,1,1.7-1.57,14.6,14.6,0,0,1,2.52-1.43,12.14,12.14,0,0,1,5-1.42,5.85,5.85,0,0,1,3,.58,3.89,3.89,0,0,1,1.48,1.56,12.36,12.36,0,0,1,.8,5.17V56.38c.07,1.92.76,3.08,2.07,3.5A9,9,0,0,0,72,60.2a13,13,0,0,1,1.43.35,3.78,3.78,0,0,1,1,.45,1.8,1.8,0,0,1,.62,1.53,3.18,3.18,0,0,1-.54,2,11.06,11.06,0,0,0-2.33-.18Zm2.22-51.11a6.63,6.63,0,0,1-2.27-.38,5.19,5.19,0,0,1-1.8-1.11,5.41,5.41,0,0,1-1.6-4.11,5.42,5.42,0,0,1,1.89-4.18,6.14,6.14,0,0,1,4.36-1.71,5.55,5.55,0,0,1,4.08,1.52A5.6,5.6,0,0,1,69,7.42,5.52,5.52,0,0,1,67.2,11.6,6.2,6.2,0,0,1,62.83,13.24Z"/><path d="M89.72,25.1A17.47,17.47,0,0,1,101.91,20,15.55,15.55,0,0,1,114,25.14q5.1,5.52,5.1,15.42,0,11.13-7,18A21.5,21.5,0,0,1,96.52,65a27.94,27.94,0,0,1-11.68-2.65,14.09,14.09,0,0,1-3.23-1.93V10.69a6.49,6.49,0,0,0-.51-3.23,3,3,0,0,0-2.69-1.17,7.72,7.72,0,0,0-1.64.17,1.67,1.67,0,0,1-1.06,0A1.7,1.7,0,0,1,75.2,6c-.5-.77.1-1.79,1.82-3A13.3,13.3,0,0,1,84.92,0q4.14,0,4.65,4.47a25.78,25.78,0,0,1,.15,2.84Zm0,5.78v25.5a12.36,12.36,0,0,0,8.18,2.84A11.42,11.42,0,0,0,107.07,55q3.75-4.44,3.75-12.19,0-8.15-3.31-12.26a9.91,9.91,0,0,0-8.24-3.74A13.54,13.54,0,0,0,89.72,30.88Z"/><path d="M129.52,64.35q-5.59,0-5.6-2.54a3.16,3.16,0,0,1,.58-2,5.22,5.22,0,0,0,1.6.29q3.39,0,3.31-4.29V31.39a6.36,6.36,0,0,0-.71-3.54,2.87,2.87,0,0,0-2.52-1,8.79,8.79,0,0,0-2.44.32c-.44,0-.75-.29-.95-1a2,2,0,0,1,.29-1.73,7.71,7.71,0,0,1,1.69-1.57,15.09,15.09,0,0,1,2.53-1.43,12.14,12.14,0,0,1,5-1.42,5.85,5.85,0,0,1,3,.58,3.94,3.94,0,0,1,1.47,1.56,12.2,12.2,0,0,1,.8,5.17V56.38c.08,1.92.77,3.08,2.08,3.5a9.16,9.16,0,0,0,1.34.32,12.7,12.7,0,0,1,1.44.35,3.78,3.78,0,0,1,1,.45,1.82,1.82,0,0,1,.62,1.53,3.12,3.12,0,0,1-.55,2,10.89,10.89,0,0,0-2.32-.18Zm2.22-51.11a6.63,6.63,0,0,1-2.27-.38,5.19,5.19,0,0,1-1.8-1.11,5.41,5.41,0,0,1-1.6-4.11A5.42,5.42,0,0,1,128,3.46a6.14,6.14,0,0,1,4.36-1.71,5.55,5.55,0,0,1,4.08,1.52,5.6,5.6,0,0,1,1.52,4.15,5.51,5.51,0,0,1-1.81,4.18A6.2,6.2,0,0,1,131.74,13.24Z"/></svg>